<svg width="297mm" height="210mm" viewBox="0 0 1500 830" xmlns="http://www.w3.org/2000/svg">
    <defs>
        <style>
            .outline { fill: #FFF; stroke: #000; stroke-width: 5; }
            .wall { stroke: #000; stroke-width: 5; }
            .wal { stroke: red; stroke-width: 5; }
            .stair-step { stroke: #000; stroke-width: 2; fill: none; }
            .arrow { fill: #000; stroke: #000; stroke-width: 2; }
            .doors {fill: #FFF; stroke: #FFF; stroke-width: 8;}
            .doors-blue {fill: blue; stroke: blue; stroke-width: 8;}
            .room-name { font-family: Arial; font-size: 14px; font-weight: 900; fill: #666; }
            
            /* Стилі для евакуаційних стрілок */
            .escape-route { fill: #00AA00; stroke: #00AA00; stroke-width: 4; }
            .escape-route-line { stroke: #00AA00; stroke-width: 4; fill: none; }

            /* Нові стилі для рамки та легенди */
            .frame { fill: none; stroke: #000; stroke-width: 3; }
            .legend-title { font-family: Arial; font-size: 18px; font-weight: bold; fill: #000; }
            .legend-text { font-family: Arial; font-size: 15px; fill: #000; }
            .icon-stroke { stroke: #000; stroke-width: 2; fill: #FFF; }
            
            /* СТИЛЬ ЗАГОЛОВКУ */
            .plan-title { font-family: Arial; font-size: 36px; font-weight: bold; fill: #df0404; text-anchor: middle; }
            .plan-title2 { font-family: Arial; font-size: 26px; font-weight: bold; fill: #df0404; text-anchor: middle; }
            .title-background { fill: #FFF; stroke: #000; stroke-width: 0; }
            /* НОВИЙ СТИЛЬ РАМКИ ЛЕГЕНДИ */
            .legend-frame { fill: none; stroke: #000; stroke-width: 2; }
        </style>
        
        <!-- ========== СИМВОЛИ ========== -->
        
        <!-- Унітаз -->
        <symbol id="toilet" viewBox="0 0 30 40">
            <rect x="5" y="0" width="20" height="8" class="icon-stroke"></rect>
            <path d="M 5,10 Q 0,20 0,30 L 0,38 L 30,38 L 30,30 Q 30,20 25,10 Z" class="icon-stroke"></path>
        </symbol>
        
        <!-- Умивальник -->
        <symbol id="sink" viewBox="0 0 30 20">
            <rect x="2" y="2" width="26" height="16" rx="5" class="icon-stroke"></rect>
            <circle cx="15" cy="10" r="2" fill="#555"></circle>
        </symbol>

        <!-- Електрощиток -->
        <symbol id="electrical-panel" viewBox="0 0 30 40">
            <rect x="2" y="2" width="26" height="36" class="icon-stroke"></rect>
            <polygon points="15,7 10,20 18,20 13,33" stroke="#FF0000" stroke-width="2" fill="none"></polygon>
        </symbol>
        
        <!-- Вогнегасник -->
        <symbol id="fire-extinguisher" viewBox="0 0 20 30">
            <rect x="2" y="5" width="16" height="23" rx="3" fill="#FF0000" stroke="#000" stroke-width="1"></rect>
            <rect x="6" y="2" width="8" height="5" fill="#555"></rect>
            <line x1="10" y1="10" x2="18" y2="10" stroke="#000" stroke-width="2"></line>
        </symbol>
        
        <!-- Знак "Вихід" (для легенди) -->
        <symbol id="exit-sign" viewBox="0 0 40 20">
            <rect x="1" y="1" width="38" height="18" fill="#00AA00" stroke="#FFF" stroke-width="1"></rect>
            <text x="20" y="14" font-family="Arial" font-size="12px" fill="#FFF" text-anchor="middle" font-weight="bold">ВИХІД</text>
        </symbol>
        
        <!-- "Ви перебуваєте тут" -->
        <symbol id="you-are-here" viewBox="0 0 30 30">
            <circle cx="15" cy="15" r="12" fill="red" stroke="#000" stroke-width="2"></circle>
        </symbol>
        
        <!-- Душова кабіна -->
        <symbol id="shower-cabin" viewBox="0 0 30 30">
            <rect x="2" y="2" width="26" height="26" class="icon-stroke"></rect>
            <line x1="2" y1="2" x2="28" y2="28" class="icon-stroke" stroke-width="1"></line>
            <line x1="28" y1="2" x2="2" y2="28" class="icon-stroke" stroke-width="1"></line>
            <circle cx="15" cy="15" r="3" class="icon-stroke"></circle>
        </symbol>
        
    </defs>
    
    <!-- ========== РАМКА ========== -->
    <rect x="5" y="5" width="1490" height="820" class="frame"></rect>

    <!-- ========== ЗАГОЛОВОК ПЛАНУ (Y=40) ========== -->
     <rect x="580" y="0" width="340" height="45" class="title-background"></rect>
    <text x="750" y="20" class="plan-title">ПЛАН ЕВАКУАЦІЇ</text>
    <text x="750" y="50" class="plan-title2">з укриття на випадок надзвичайної ситуації</text>
    <text x="1230" y="640" class="legend-title">ЗАТВЕРДЖУЮ:</text>
    <polygon points="
            1220,650
            1420,650
            1470,700
            1470,800
            1220,800
        " class="legend-frame"></polygon>

    <!-- ========== ПЛАН ПІД'ЇЗДУ 1 (Зміщено Y до 65) ========== -->
    <g transform="translate(30, 105)">
        <!-- Зовнішній контур всього плану одним polygon -->
        <polygon points="
            0,0
            920,0
            920,300
            770,300
            770,400
            620,400
            620,130
            520,130
            520,400
            442,400
            442,130
            400,130
            400,300
            300,300
            300,400
            150,400
            150,300
            0,300
        " class="outline"></polygon>
        
        <!-- Внутрішні стіни -->
         <line x1="150" y1="0" x2="150" y2="40" class="wall"></line>
        <line x1="150" y1="90" x2="150" y2="300" class="wall"></line>
        <line x1="150" y1="130" x2="200" y2="130" class="wall"></line>
        <line x1="250" y1="130" x2="400" y2="130" class="wall"></line>
        <line x1="300" y1="130" x2="300" y2="150" class="wall"></line>
        <line x1="300" y1="190" x2="300" y2="400" class="wall"></line>
        <line x1="400" y1="0" x2="400" y2="40" class="wall"></line>
        <line x1="400" y1="90" x2="400" y2="130" class="wall"></line>
        <line x1="330" y1="0" x2="330" y2="40" class="wall"></line>
        <line x1="330" y1="90" x2="330" y2="130" class="wall"></line>
        <line x1="300" y1="210" x2="310" y2="210" class="wall"></line>
        <line x1="340" y1="210" x2="400" y2="210" class="wall"></line>
        <line x1="483" y1="180" x2="490" y2="180" class="wall"></line>
        <line x1="510" y1="180" x2="520" y2="180" class="wall"></line>
        <line x1="440" y1="340" x2="450" y2="340" class="wall"></line>
        <line x1="480" y1="340" x2="520" y2="340" class="wall"></line>
        <line x1="485" y1="180" x2="485" y2="340" class="wall"></line>
        <line x1="520" y1="0" x2="520" y2="40" class="wall"></line>
        <line x1="520" y1="90" x2="520" y2="130" class="wall"></line>
        <line x1="520" y1="130" x2="520" y2="400" class="wall"></line>
        <line x1="620" y1="130" x2="620" y2="400" class="wall"></line>
        <line x1="590" y1="0" x2="590" y2="40" class="wall"></line>
        <line x1="590" y1="90" x2="590" y2="130" class="wall"></line>
        <line x1="620" y1="130" x2="640" y2="130" class="wall"></line>
        <line x1="700" y1="130" x2="770" y2="130" class="wall"></line>
        <line x1="770" y1="0" x2="770" y2="40" class="wall"></line>
        <line x1="770" y1="90" x2="770" y2="300" class="wall"></line>
        
        <!-- Сходи -->
        <line x1="440" y1="190" x2="485" y2="190" class="stair-step"></line>
        <line x1="440" y1="200" x2="485" y2="200" class="stair-step"></line>
        <line x1="440" y1="210" x2="485" y2="210" class="stair-step"></line>
        <line x1="440" y1="220" x2="485" y2="220" class="stair-step"></line>
        <line x1="440" y1="230" x2="485" y2="230" class="stair-step"></line>
        <line x1="440" y1="240" x2="485" y2="240" class="stair-step"></line>
        <line x1="440" y1="250" x2="485" y2="250" class="stair-step"></line>
        <line x1="440" y1="260" x2="485" y2="260" class="stair-step"></line>
        <line x1="440" y1="270" x2="485" y2="270" class="stair-step"></line>
        <line x1="440" y1="280" x2="485" y2="280" class="stair-step"></line>
        <line x1="440" y1="290" x2="485" y2="290" class="stair-step"></line>
        <line x1="440" y1="300" x2="485" y2="300" class="stair-step"></line>
        <line x1="440" y1="310" x2="485" y2="310" class="stair-step"></line>
        <line x1="440" y1="320" x2="485" y2="320" class="stair-step"></line>
        <line x1="440" y1="330" x2="485" y2="330" class="stair-step"></line>
        <polygon points="467.5,330 463,320 472,320" class="arrow"></polygon>
        <line x1="467.5" y1="195" x2="467.5" y2="320" class="arrow"></line>

        <!-- Двері -->
        <line x1="480" y1="400" x2="510" y2="400" class="doors"></line> 
        <line x1="0" y1="100" x2="0" y2="140" class="doors"></line> 
        
        <!-- Евакуаційні стрілки П1 -->
        <g id="escape_p1">
            <line x1="80" y1="65" x2="140" y2="65" class="escape-route-line"></line>
            <polygon points="150,65 140,61 140,69" class="escape-route"></polygon>
            <line x1="50" y1="120" x2="10" y2="120" class="escape-route-line"></line>
            <polygon points="0,120 10,116 10,124" class="escape-route"></polygon>
            <line x1="225" y1="270" x2="225" y2="140" class="escape-route-line"></line>
            <polygon points="225,130 221,140 229,140" class="escape-route"></polygon>
            <line x1="225" y1="65" x2="405" y2="65" class="escape-route-line"></line>
            <polygon points="415,65 405,61 405,69" class="escape-route"></polygon>
            <line x1="465" y1="85" x2="465" y2="380" class="escape-route-line"></line>
            <polygon points="465,390 461,380 469,380" class="escape-route"></polygon>
            <line x1="300" y1="170" x2="350" y2="170" class="escape-route-line"></line>
            <polygon points="300,170 310,166 310,174" class="escape-route"></polygon>
            <line x1="325" y1="280" x2="325" y2="210" class="escape-route-line"></line>
            <polygon points="325,200 321,210 329,210" class="escape-route"></polygon>
            <line x1="820" y1="65" x2="750" y2="65" class="escape-route-line"></line>
            <polygon points="750,65 760,61 760,69" class="escape-route"></polygon>
            <line x1="670" y1="270" x2="670" y2="140" class="escape-route-line"></line>
            <polygon points="670,130 666,140 674,140" class="escape-route"></polygon>
            <line x1="670" y1="65" x2="475" y2="65" class="escape-route-line"></line>
            <polygon points="465,65 475,61 475,69" class="escape-route"></polygon>
        </g>
        
        <!-- ========== ЕЛЕМЕНТИ П1 ========== -->
        <!-- Сантехніка в "санвузол" (кімната x:300-400, y:210-400) -->
        
        <use href="#shower-cabin" x="350" y="230" width="50" height="50"></use>
        
        <!-- Електрощиток вихід 1 -->
        <use href="#electrical-panel" x="410" y="100" width="20" height="30"></use>
        
        <!-- Вогнегасник в коридорі 1 -->
        <use href="#fire-extinguisher" x="490" y="250" width="20" height="30"></use>
        
        <!-- Вихід 1 -->
         <use href="#exit-sign" x="455" y="410" width="40" height="20"></use>
    </g>
    
    <!-- ========== ПІД'ЇЗД 2 (П2) (Зміщено Y до 65) ========== -->
    <g transform="translate(950, 105)">
        <!-- Зовнішній контур П2 -->
        <polygon points="
            0,0
            520,0
            520,400
            442,400
            442,130
            400,130
            400,300
            300,300
            300,400
            150,400
            150,300
            0,300
        " class="outline"></polygon>
        
        <!-- Внутрішні стіни П2 -->
        <line x1="150" y1="0" x2="150" y2="40" class="wall"></line>
        <line x1="150" y1="90" x2="150" y2="300" class="wall"></line>
        <line x1="150" y1="130" x2="200" y2="130" class="wall"></line>
        <line x1="250" y1="130" x2="400" y2="130" class="wall"></line>
        <line x1="300" y1="130" x2="300" y2="150" class="wall"></line>
        <line x1="300" y1="190" x2="300" y2="400" class="wall"></line>
        <line x1="400" y1="0" x2="400" y2="40" class="wall"></line>
        <line x1="400" y1="90" x2="400" y2="130" class="wall"></line>
        <line x1="330" y1="0" x2="330" y2="40" class="wall"></line>
        <line x1="330" y1="90" x2="330" y2="130" class="wall"></line>
        <line x1="300" y1="210" x2="310" y2="210" class="wall"></line>
        <line x1="340" y1="210" x2="400" y2="210" class="wall"></line>
        <line x1="483" y1="180" x2="490" y2="180" class="wall"></line>
        <line x1="510" y1="180" x2="520" y2="180" class="wall"></line>
        <line x1="440" y1="340" x2="450" y2="340" class="wall"></line>
        <line x1="480" y1="340" x2="520" y2="340" class="wall"></line>
        <line x1="485" y1="180" x2="485" y2="340" class="wall"></line>
        
        <!-- Сходи П2 -->
        <line x1="440" y1="190" x2="485" y2="190" class="stair-step"></line>
        <line x1="440" y1="200" x2="485" y2="200" class="stair-step"></line>
        <line x1="440" y1="210" x2="485" y2="210" class="stair-step"></line>
        <line x1="440" y1="220" x2="485" y2="220" class="stair-step"></line>
        <line x1="440" y1="230" x2="485" y2="230" class="stair-step"></line>
        <line x1="440" y1="240" x2="485" y2="240" class="stair-step"></line>
        <line x1="440" y1="250" x2="485" y2="250" class="stair-step"></line>
        <line x1="440" y1="260" x2="485" y2="260" class="stair-step"></line>
        <line x1="440" y1="270" x2="485" y2="270" class="stair-step"></line>
        <line x1="440" y1="280" x2="485" y2="280" class="stair-step"></line>
        <line x1="440" y1="290" x2="485" y2="290" class="stair-step"></line>
        <line x1="440" y1="300" x2="485" y2="300" class="stair-step"></line>
        <line x1="440" y1="310" x2="485" y2="310" class="stair-step"></line>
        <line x1="440" y1="320" x2="485" y2="320" class="stair-step"></line>
        <line x1="440" y1="330" x2="485" y2="330" class="stair-step"></line>
        <polygon points="467.5,330 463,320 472,320" class="arrow"></polygon>
        <line x1="467.5" y1="195" x2="467.5" y2="320" class="arrow"></line>

        <!-- Двері П2 -->   
        <line x1="0" y1="150" x2="0" y2="190" class="doors"></line>
        <line x1="480" y1="400" x2="510" y2="400" class="doors"></line> 
        
        <!-- Евакуаційні стрілки П2 -->
        <g id="escape_p2">
            <line x1="80" y1="65" x2="140" y2="65" class="escape-route-line"></line>
            <polygon points="150,65 140,61 140,69" class="escape-route"></polygon>
            <line x1="225" y1="270" x2="225" y2="140" class="escape-route-line"></line>
            <polygon points="225,130 221,140 229,140" class="escape-route"></polygon>
            <line x1="225" y1="65" x2="455" y2="65" class="escape-route-line"></line>
            <polygon points="465,65 455,61 455,69" class="escape-route"></polygon>
            <line x1="465" y1="85" x2="465" y2="380" class="escape-route-line"></line>
            <polygon points="465,390 461,380 469,380" class="escape-route"></polygon>
            <line x1="325" y1="270" x2="325" y2="210" class="escape-route-line"></line>
            <polygon points="325,200 321,210 329,210" class="escape-route"></polygon>
            <line x1="300" y1="170" x2="350" y2="170" class="escape-route-line"></line>
            <polygon points="300,170 310,166 310,174" class="escape-route"></polygon>
        </g>
        
        <!-- ========== ЕЛЕМЕНТИ П2 ========== -->
        <!-- Сантехніка в "санвузол 2" (кімната x:300-400, y:210-400) -->
        <use href="#toilet" x="360" y="230" width="30" height="40"></use>
        <use href="#sink" x="310" y="280" width="30" height="20"></use>

        <!-- Електрощиток вихід 2 -->
        <use href="#electrical-panel" x="490" y="0" width="20" height="30"></use>
        <use href="#electrical-panel" x="470" y="0" width="20" height="30"></use>
        <!-- Вихід 2 -->
         <use href="#exit-sign" x="455" y="410" width="40" height="20"></use>
        
    </g>
    
    
    <!-- ========== НУМЕРАЦІЯ КІМНАТ (всі текстові підписи) (Зміщено Y на 15) ========== -->
    <g id="room-numbers" transform="translate(0, 15)">
        <text x="85" y="190" class="room-name">кімната 10</text>
        <text x="245" y="180" class="room-name">коридор 5</text>
        <text x="225" y="370" class="room-name">кімната 9</text>
        <text x="355" y="280" class="room-name">душова</text>
        <text x="575" y="460" class="room-name">Вихід 1</text>
        <text x="665" y="180" class="room-name">коридор 4</text>
        <text x="665" y="370" class="room-name">кімната 8</text>
        <text x="865" y="190" class="room-name">кімната 7</text>
        <text x="1005" y="190" class="room-name">кімната 6</text>
        <text x="1165" y="180" class="room-name">коридор 3</text>
        <text x="1155" y="370" class="room-name">кімната 5</text>
        <text x="1275" y="280" class="room-name">санвузол</text>
        <text x="1325" y="460" class="room-name">Вихід 2</text>
    </g>
    
    <!-- ========== ЛЕГЕНДА (УМОВНІ ПОЗНАЧЕННЯ) (Зміщено Y до 485) ========== -->
    <g id="legend" transform="translate(50, 550)">
        <rect x="-20" y="20" width="500" height="230" class="legend-frame"></rect>
        <rect x="-10" y="0" width="225" height="25" class="title-background"></rect>
        <text x="0" y="25" class="legend-title">УМОВНІ ПОЗНАЧЕННЯ:</text>
        
        <!-- Колонка 1 -->
        <line x1="20" y1="50" x2="50" y2="50" class="escape-route-line"></line>
        <polygon points="60,50 50,46 50,54" class="escape-route"></polygon>
        <text x="80" y="55" class="legend-text">Напрямок евакуації</text>
        
        <use href="#you-are-here" x="25" y="75" width="20" height="20"></use>
        <text x="80" y="90" class="legend-text">Ви перебуваєте тут</text>
        
        <use href="#exit-sign" x="15" y="110" width="40" height="20"></use>
        <text x="80" y="125" class="legend-text">Евакуаційний вихід</text>
        
        <use href="#electrical-panel" x="20" y="140" width="20" height="30"></use>
        <text x="80" y="155" class="legend-text">Електрощиток</text>
        
        <use href="#fire-extinguisher" x="20" y="180" width="20" height="30"></use>
        <text x="80" y="195" class="legend-text">Вогнегасник</text>
        
        <!-- Колонка 2 -->
        <use href="#toilet" x="300" y="30" width="20" height="30"></use>
        <text x="340" y="45" class="legend-text">Унітаз</text>
        
        <use href="#sink" x="300" y="70" width="25" height="20"></use>
        <text x="340" y="85" class="legend-text">Умивальник</text>
        
        <use href="#shower-cabin" x="300" y="100" width="25" height="25"></use>
        <text x="340" y="120" class="legend-text">Душова кабіна</text>
        
    </g>
    
</svg>